<?xml version="1.0" standalone="no"?>
<!DOCTYPE svg PUBLIC "-//W3C//DTD SVG 20010904//EN"
 "http://www.w3.org/TR/2001/REC-SVG-20010904/DTD/svg10.dtd">
<svg version="1.0" xmlns="http://www.w3.org/2000/svg"
 width="4500.000000pt" height="4500.000000pt" viewBox="0 0 4500.000000 4500.000000"
 preserveAspectRatio="xMidYMid meet">
<metadata>
Created by potrace 1.11, written by Peter Selinger 2001-2013
</metadata>
<g transform="translate(0.000000,4500.000000) scale(0.100000,-0.100000)"
fill="#000000" stroke="none">
<path d="M23125 39114 c-44 -2 -195 -8 -335 -14 -3280 -139 -6421 -1342 -8948
-3428 -398 -328 -651 -559 -1068 -976 -447 -448 -737 -770 -1099 -1221 -1623
-2023 -2699 -4445 -3114 -7005 -93 -574 -150 -1128 -183 -1775 -23 -457 -13
-1141 23 -1655 124 -1762 538 -3442 1242 -5045 524 -1192 1214 -2330 2032
-3350 362 -451 652 -773 1099 -1221 417 -417 670 -648 1068 -976 2692 -2222
6086 -3442 9578 -3442 1969 0 3917 387 5750 1143 1484 611 2935 1507 4120
2545 559 490 1126 1062 1594 1611 1771 2074 2957 4640 3395 7345 93 574 150
1128 183 1775 23 457 13 1141 -23 1655 -124 1762 -538 3442 -1242 5045 -524
1192 -1214 2330 -2032 3350 -362 451 -652 773 -1099 1221 -417 417 -670 648
-1068 976 -2426 2002 -5420 3193 -8568 3408 -385 26 -1071 44 -1305 34z m3870
-6789 c83 -8 193 -15 245 -15 52 0 133 -5 180 -10 47 -6 146 -14 220 -20 400
-28 874 -97 1265 -186 109 -24 319 -75 350 -84 17 -5 55 -16 85 -25 201 -57
452 -143 585 -201 17 -7 55 -22 85 -35 55 -21 132 -57 263 -119 60 -28 116
-58 262 -140 136 -76 299 -181 410 -264 84 -63 252 -194 271 -211 6 -5 51 -46
100 -90 472 -424 810 -925 1051 -1560 8 -22 21 -55 29 -73 8 -18 14 -39 14
-47 0 -8 6 -29 14 -47 27 -66 78 -246 111 -398 9 -41 23 -102 30 -135 7 -33
21 -107 30 -165 9 -58 20 -133 26 -168 47 -299 46 -1048 -1 -1349 -37 -237
-51 -312 -86 -463 -27 -116 -60 -237 -79 -290 -7 -19 -25 -73 -40 -120 -68
-210 -232 -580 -319 -718 -12 -20 -38 -64 -56 -97 -75 -136 -251 -384 -390
-550 -177 -212 -434 -463 -639 -625 -45 -36 -96 -77 -114 -91 -31 -26 -99 -73
-247 -173 -92 -63 -205 -133 -285 -176 -33 -18 -73 -41 -90 -51 -83 -48 -360
-181 -460 -221 -27 -11 -54 -24 -60 -29 -5 -5 -17 -9 -26 -9 -10 0 -30 -6 -46
-14 -29 -15 -54 -25 -188 -74 l-80 -29 0 -43 0 -43 90 -34 c50 -19 94 -38 100
-44 5 -5 15 -9 23 -9 7 0 71 -28 140 -62 526 -255 997 -681 1336 -1208 38 -58
77 -117 87 -132 10 -15 19 -29 19 -32 0 -3 13 -27 29 -54 84 -142 261 -493
261 -517 0 -2 12 -30 26 -62 51 -114 73 -169 84 -203 5 -14 18 -50 30 -80 11
-30 37 -102 56 -160 19 -58 39 -114 44 -125 5 -11 16 -47 25 -80 10 -33 23
-78 30 -100 7 -22 19 -65 28 -95 8 -30 22 -80 31 -110 29 -105 63 -238 101
-405 16 -74 42 -180 61 -260 8 -33 19 -78 23 -100 5 -22 17 -71 26 -110 27
-111 42 -175 59 -250 9 -38 24 -97 32 -130 8 -33 18 -78 23 -100 4 -22 13 -58
19 -80 6 -22 18 -71 27 -110 9 -38 22 -92 30 -120 7 -27 27 -113 45 -190 17
-77 36 -150 41 -163 5 -13 9 -31 9 -41 0 -10 6 -41 14 -67 20 -67 67 -253 73
-284 2 -14 10 -47 18 -75 16 -53 41 -154 94 -375 5 -19 19 -71 31 -115 12 -44
26 -96 31 -115 4 -19 15 -61 23 -92 9 -32 23 -83 31 -113 8 -30 22 -81 30
-113 9 -31 20 -75 26 -97 5 -22 13 -51 18 -65 5 -14 17 -54 26 -90 10 -36 23
-83 30 -105 7 -22 21 -67 30 -100 10 -33 21 -71 26 -85 4 -14 17 -59 29 -100
12 -41 25 -84 29 -95 5 -11 29 -85 55 -165 59 -183 108 -319 140 -393 9 -21
16 -42 16 -47 0 -6 14 -40 31 -77 48 -106 59 -131 59 -137 0 -3 -515 -5 -1146
-4 l-1145 3 -18 35 c-22 43 -43 91 -66 150 -9 25 -22 56 -27 70 -5 13 -18 51
-29 85 -11 33 -24 69 -29 80 -5 11 -30 85 -55 165 -25 80 -50 159 -56 175 -6
17 -14 46 -19 65 -4 19 -12 46 -17 60 -6 14 -18 52 -27 85 -23 84 -32 117 -62
220 -43 151 -56 199 -64 235 -4 19 -18 71 -30 115 -12 44 -26 96 -31 115 -4
19 -15 60 -23 90 -42 156 -78 299 -85 335 -4 22 -13 60 -20 85 -13 45 -27 101
-56 220 -8 36 -20 81 -25 100 -5 19 -23 94 -40 165 -17 72 -37 157 -45 190 -8
33 -28 121 -46 195 -17 74 -37 158 -44 185 -7 28 -17 73 -23 100 -7 28 -19 84
-28 125 -9 41 -22 98 -29 125 -7 28 -21 86 -30 130 -10 44 -21 94 -26 110 -5
17 -13 50 -18 75 -5 25 -17 77 -25 115 -9 39 -23 99 -31 135 -21 98 -40 172
-75 305 -18 66 -35 134 -40 150 -19 70 -39 142 -49 170 -29 82 -61 185 -61
195 0 7 -6 26 -14 43 -8 18 -23 59 -34 92 -11 34 -26 74 -33 90 -116 287 -157
377 -287 630 -24 47 -121 203 -181 290 -132 194 -372 456 -521 570 -36 27 -71
55 -78 62 -16 16 -205 140 -257 170 -22 13 -87 46 -145 74 -154 76 -206 98
-305 132 -38 13 -86 29 -105 36 -19 7 -57 19 -85 26 -27 7 -84 22 -125 33
-117 30 -297 67 -410 83 -300 41 -309 42 -1515 48 -643 4 -1171 8 -1172 9 -1
1 -1 377 0 835 l2 832 1270 6 c1210 6 1442 11 1645 39 98 13 286 40 315 45 63
10 285 57 310 65 17 5 59 16 95 25 81 21 390 120 433 138 18 8 52 22 77 32
157 63 427 199 548 278 23 15 61 39 85 53 74 47 229 165 332 255 329 285 582
625 758 1019 31 70 77 185 77 193 0 5 6 23 14 40 7 18 21 59 31 92 10 33 22
71 26 85 8 25 41 166 59 250 35 170 59 400 65 630 5 166 -19 510 -45 665 -24
138 -63 318 -89 405 -33 113 -42 140 -61 190 -12 30 -25 66 -30 80 -14 45
-123 275 -163 345 -81 141 -170 266 -297 420 -58 69 -171 182 -255 255 -85 73
-318 250 -329 250 -2 0 -31 17 -63 39 -117 77 -369 205 -518 262 -55 22 -72
28 -128 53 -21 9 -48 16 -61 16 -13 0 -63 11 -111 25 l-88 26 -3511 2 -3511 2
-3 -7652 -2 -7653 -1125 0 -1125 0 0 7649 c0 7014 -1 7649 -16 7655 -9 3
-1163 6 -2565 6 -1858 0 -2555 3 -2570 11 -12 6 -40 16 -62 23 -34 10 -42 17
-47 41 -3 17 -3 437 0 935 l5 905 5890 6 c3597 4 5919 11 5965 16 41 6 354 10
695 11 479 1 654 -2 770 -13z"/>
</g>
</svg>
